<?xml version="1.0" standalone="no"?>
<!DOCTYPE svg PUBLIC "-//W3C//DTD SVG 20010904//EN"
 "http://www.w3.org/TR/2001/REC-SVG-20010904/DTD/svg10.dtd">
<svg version="1.0" xmlns="http://www.w3.org/2000/svg"
 width="1200.000000pt" height="1200.000000pt" viewBox="0 0 1200.000000 1200.000000"
 preserveAspectRatio="xMidYMid meet">
<metadata>
Created by potrace 1.14, written by Peter Selinger 2001-2017
</metadata>
<g transform="translate(0.000000,1200.000000) scale(0.100000,-0.100000)"
fill="#000000" stroke="none">
<path d="M11520 11687 c-2320 -1471 -4477 -3515 -6366 -6032 -651 -867 -1355
-1935 -1779 -2699 l-89 -160 -27 60 c-15 32 -256 534 -536 1114 -376 781 -521
1073 -558 1120 -122 162 -299 306 -452 370 -146 61 -212 73 -393 73 -143 1
-180 -3 -275 -25 -257 -60 -535 -194 -805 -387 -99 -70 -239 -183 -240 -192 0
-4 17 -10 37 -14 53 -9 205 -70 283 -113 332 -182 648 -506 962 -987 382 -584
786 -1494 1099 -2478 85 -268 219 -734 284 -989 l48 -187 156 107 c1065 728
1161 796 1172 832 36 112 164 455 240 646 1078 2695 3383 5742 6547 8652 336
309 1054 934 1170 1018 5 3 -241 414 -248 414 -3 0 -106 -65 -230 -143z"/>
</g>
</svg>
